/* XPM */
static char *_de7e90d735240ffb56d6bfe6171ff3bO4JC5Z4C18pLVqtO[] = {
/* columns rows colors chars-per-pixel */
"80 80 256 2 ",
"   c #2A1A08",
".  c #341B08",
"X  c #291B18",
"o  c #331C18",
"O  c #2A251A",
"+  c #362719",
"@  c #3A341B",
"#  c #3E391D",
"$  c #373217",
"%  c #31260D",
"&  c #371828",
"*  c #301828",
"=  c #2A2627",
"-  c #372926",
";  c #3C3423",
":  c #3B3926",
">  c #352936",
",  c #3A3735",
"<  c #2A2731",
"1  c #1D1E16",
"2  c #481A03",
"3  c #482705",
"4  c #482A19",
"5  c #43381C",
"6  c #58330E",
"7  c #703908",
"8  c #452A2A",
"9  c #433D23",
"0  c #46392A",
"q  c #473B36",
"w  c #56392F",
"e  c #4C1D31",
"r  c #674319",
"t  c #77460E",
"y  c #454125",
"u  c #45422B",
"i  c #4B452B",
"p  c #4D4A2D",
"a  c #494627",
"s  c #55462C",
"d  c #4D4B32",
"f  c #4A4537",
"g  c #524D33",
"h  c #554939",
"j  c #555135",
"k  c #595336",
"l  c #55523A",
"z  c #5B553B",
"x  c #5D5A3D",
"c  c #5B5935",
"v  c #4E5031",
"b  c #654B36",
"n  c #625C3E",
"m  c #685338",
"M  c #785639",
"N  c #6C482B",
"B  c #65623C",
"V  c #52354B",
"C  c #6C2863",
"Z  c #4B4A42",
"A  c #574D43",
"S  c #5C5544",
"D  c #5D5A43",
"F  c #575747",
"G  c #595356",
"H  c #625D42",
"J  c #635D4A",
"K  c #675747",
"L  c #785847",
"P  c #775D56",
"I  c #6A504D",
"U  c #5E604A",
"Y  c #656245",
"T  c #696446",
"R  c #65634B",
"E  c #6A654B",
"W  c #6D694C",
"Q  c #676A4A",
"!  c #716C4E",
"~  c #74674A",
"^  c #76724D",
"/  c #6D6B52",
"(  c #696656",
")  c #726D53",
"_  c #736C5A",
"`  c #786956",
"'  c #6D7156",
"]  c #757155",
"[  c #7A7456",
"{  c #75735A",
"}  c #7B755B",
"|  c #7D795D",
" . c #787A58",
".. c #6C724F",
"X. c #705066",
"o. c #776C66",
"O. c #7C7562",
"+. c #7D7B62",
"@. c #787866",
"#. c #72726D",
"$. c #5C596C",
"%. c #3B4039",
"&. c #8C350A",
"*. c #A13F00",
"=. c #994508",
"-. c #8F4C12",
";. c #A74E0B",
":. c #9A5737",
">. c #93542D",
",. c #AF6D34",
"<. c #AC5E23",
"1. c #CF7015",
"2. c #CF7329",
"3. c #8F2A7A",
"4. c #855A4E",
"5. c #886956",
"6. c #817C5E",
"7. c #847759",
"8. c #977159",
"9. c #95684F",
"0. c #B1754F",
"q. c #895076",
"w. c #896C65",
"e. c #827D62",
"r. c #837D6B",
"t. c #877964",
"y. c #997967",
"u. c #8A7573",
"i. c #A9786D",
"p. c #C7764D",
"a. c #C25469",
"s. c #D37379",
"d. c #7E8267",
"f. c #D8851A",
"g. c #F6961B",
"h. c #EA8B1A",
"j. c #D28932",
"k. c #E78A25",
"l. c #EA9429",
"z. c #F59726",
"x. c #EB9936",
"c. c #F18F20",
"v. c #F6A43A",
"b. c #F4A023",
"n. c #85815E",
"m. c #89845F",
"M. c #BA864F",
"N. c #858265",
"B. c #898465",
"V. c #8C8966",
"C. c #85826A",
"Z. c #8A856A",
"A. c #8D896D",
"S. c #858969",
"D. c #928B6D",
"F. c #95886A",
"G. c #94926E",
"H. c #858471",
"J. c #8C8573",
"K. c #8D8B72",
"L. c #8B8B7A",
"P. c #938D73",
"I. c #968C78",
"U. c #8D9174",
"Y. c #959175",
"T. c #999475",
"R. c #95937A",
"E. c #9B957A",
"W. c #9D997C",
"Q. c #9A9975",
"!. c #A98874",
"~. c #B78C76",
"^. c #A19B7E",
"/. c #A79679",
"(. c #B99579",
"). c #AD856A",
"_. c #A4A27C",
"`. c #9FA07E",
"'. c #CD9052",
"]. c #E6944A",
"[. c #F0AB53",
"{. c #CB9B69",
"}. c #C9997A",
"|. c #D99A78",
" X c #CB8971",
".X c #E39B79",
"XX c #D1A473",
"oX c #F1B26B",
"OX c #F7C07F",
"+X c #7C7683",
"@X c #B72699",
"#X c #AD358E",
"$X c #BD1EAA",
"%X c #BB28A7",
"&X c #B533A4",
"*X c #C32A9B",
"=X c #C31DAA",
"-X c #C51FB2",
";X c #C324AB",
":X c #C522B3",
">X c #C636B3",
",X c #91738C",
"<X c #B94AA9",
"1X c #BC74AE",
"2X c #A66094",
"3X c #CA4E93",
"4X c #C349B3",
"5X c #C466B8",
"6X c #E87F8E",
"7X c #CC7FC7",
"8X c #9D9B82",
"9X c #999783",
"0X c #8F878D",
"qX c #A29D83",
"wX c #A69B86",
"eX c #B79886",
"rX c #AA9593",
"tX c #A4A285",
"yX c #AAA58B",
"uX c #A9A589",
"iX c #B4AD94",
"pX c #A998A4",
"aX c #B3ACAF",
"sX c #9BA292",
"dX c #C99986",
"fX c #D88D88",
"gX c #E78D8E",
"hX c #D9A986",
"jX c #D3AD92",
"kX c #E4A987",
"lX c #E6B48C",
"zX c #E8BA96",
"xX c #F4BB98",
"cX c #F3AB95",
"vX c #DCBCA6",
"bX c #C6B3B1",
"nX c #F9B7A7",
"mX c #ECB4A7",
"MX c #EE9DA3",
"NX c #EDC296",
"BX c #EAC2A6",
"VX c #F4C2A2",
"CX c #D4C2B9",
"ZX c #D68AD1",
"AX c #D0B5C8",
"SX c #D2C8D6",
"DX c #EADAEA",
"FX c #ECDBF7",
"GX c #F6D9F9",
"HX c #F0DFEF",
"JX c #EBE4F4",
"KX c #F5EAF9",
"LX c #FDFBFE",
"PX c #FCF6FB",
"IX c #EFE8EB",
"UX c #ECE0D8",
/* pixels */
"p E j ! [ T T } 6.E ! ! | k W ! Q Q ' ' +.j | ` _ ` k E 6.N.T.t.| G.qXF C.d.@.D l | ] ..7.e.H t.@.' @.+.{ : N.| +.] +.+.l | ) t.K.P.d ) T | ]  .P.K.A.H e.[ | T ",
"# B.| Z.D.] e.W.W.B.W.P.qXy Y.T.S.8XuX`.8X~ /.Q.^.P.K 6.tXqX/.Y.| Y.uXR L.I.' R Q B.Q.d.N.W.a N.+.{ +.e.R.% A.tXW.R.W.8XY W.T.^.Z.K.H E.B.R.d.tXR.Y.K.[ P.qXqXD.",
"i n B.e.e.[ e.T.T.T.B.I.6.z T.W.Y.qXY.B.D.W uXiXW.8X] ) R.8XA.Z.A.Q.U.x E.r.J._ Q Y.E. .Q.G.v d./ | Z.B.7.5 [ qXuXuXS.A./ qXwXI.K.e.D K.J.S.Z.8XR.S.N.W P.e.R.Z.",
"@ B.e.T.} } | e.A.^.6.6.Y.k D.e.qX/.^.Y.B.B D.uXtXW.x ' iXC.qXA.Y.tXA.W I.O.Z.[ Y A. .S.Y.d.a d.Y.N.[ qXt.@ I.t.K.qXK.U.} K.+.qXZ.K.d S.K.J.K.K.K.| z x I.qXP.B.",
"a e.} E.r.} W [ e.g ) T [ g P.Z.I.I.E.wXQ.x Y.E.uXtXR C.yX+.W.U.W.Y.Y.k B.D.F.t.H /.C.} +.+.F | N.S.7.V.6.5 ~ ~ z ) R { D iX+.K.C.E.d ( ] / / U l / | Q A.W.Y.Z.",
"9 A.B.} P.~ r.B.t.| Z.I.C.g e.wX!.I.I.^.W.R 8XI.yXS.T +.Z.C. .| B.[ [ j Y.7.B.[ i e.[ +.J / 0 K.S.^ V.B.V.5 F.uXZ.E K.K.J.K.Z.D e.K.D ]  ./ { { N.+.{ / H qXP.{ ",
"i e.} P.Z./ E.r.t.H Z.P.wXp E E n k H T / D E ` ) K p _.iXt.G.^.K.iX8XU d.U.qX[ l T r._ e.wXs r.| d.m.D.7.@ B.E.E.) ] C.+.C.qX+.C.C.D K.C.+._ / R.R.9XK.Y P.8XN.",
"@ B.Z.P.r.~ B.e.K.E 6.P.E.9 B.Y.A.P.n 8XuXqX9XE.wXwX0 !.A.D.^.D.e.Z.tX: Q d.( u F L.yXwXI.E.i | T d.Q.| W % E.P.wX_ e.e.C.+.H.R.E.d.d K.E.J.K.Q tX8X9X+.z N.E.` ",
"9 g i z H g T E ) g ) 8XE.@ B.I.Q.V.B G.G.uX^./.^./.~ B.Z.tXR.U.9X( ' %.F #.' Z F ( ' ' _ P.R Y ' { / @.U.O +.R.R.E S.O.Z.E N.U.A.8Xg K.K.U.| l R R g a g H J H ",
"i ` | e.! ) e.Z.W.E t.E.D.i P.A.Q.uXv V.E.W.uXuXD.m.B A.e.U.9X9Xr.- : O : : = = = ; : : 9 e.d +.R R { U.| u +.K.J._ +.` qXW P.Y.K.K.g { +.L.+.] L.C.} } | W wX[ ",
"a [ e._ e.} N.C.t.Y A.[ E.9 Z.Y.S.`.] K.S.I.Y.qXZ.uXl  .U.' d.r.` n m m b b b M b b k w z O.0 R H.+.D Q K.O d.H.} H K.O.[ x A.Z.T.uX; W N.E.| / N.| N.E.Z.W | [ ",
"9 r.) t.Z.e.N.E.P.g K.e.W.i A.E.W.E.Y Z.E.Y.A.S.W.Y.p +.H.0 ; a r {.XXXXXX{.XX{.{.{.{.}.(.i % @ 9 ] +.D `.# @.C.O._ E.+.) | Y [ T z ; R Z.R.Y ' ) e.E.Z.P.O.` [ ",
"g e.W D.A. .N.T.A.a ] 6.e.y 6.P.9XK.D Z.tXZ.C.R.U.H.d ] ^ m M r -.[.oXoX[.[.[.[.[.oXoXoXoXr r a s B 5.|  .@ D ] ( j r.e.g [ z H Y e.@ H E E p E x T ] Y ~ [ 6.T ",
"y z j k j j z 5 x x z Q E p H ] / R D z g l u l F R p % a XX'.j.j.v.v.].v.x.k.v.v.b.v.].[.{.{.'.).4 3 n B 5 Q ] e.W z g g ) H ] ! t.9 T / E +.[ E x E 6.! ) E z ",
"a ) W [ ! B.A.Y N.} A.] qXx P.] K.Y./.G.T T.8XU.R.( n M >.oX[.l.b.z.l.l.l.1.1.c.g.g.z.z.x.[.[.OXXXN s M F.5 A.N.D.I.B.( Z.C.E Z.e.A.y | ] T | D.W j A.D.Y.D.D.7.",
"p | [  .A.| Z.n A.| ] T.Y.k Y.Y.A.n.[ /.7._.8X9XL.@ r {.].[.b.b.g.z.z.k.2.*.;.h.g.g.g.z.b.v.[.[.oXM.).m g 5 D.| 9X| J.z ) P.| Y.} Z.z N.[ [ D.N.e.k B.B.7.V.Y.` ",
"@ |  .A.A.n.n.Y N.B.] V.Y.p | ] 9Xd.n.V.n F.Z.C.@.  7 oX[.z.z.c.c.1.2.2.<.;.;.2.1.c.g.z.z.z.z.z.x.oXXX3 o 0 t.C._ +.d.x } m.7.e.Z.Z.g | } B.n.T.N.g ] A._.7.A.T ",
"# | T ] [ ! E.c 6.B.Q.V.Y.a D Y  . .T B a B.K.9XL.  6 [.x.g.z.f.2.*.*.&.:.p.p.=.;.k.h.g.z.g.g.g.b.v.{.3 + f O.O.@.U.C.B ] 7.A.N.E.e.H ) +.]  .m.A.k 6.6.G.F.[ [ ",
"a n 7.W D.V.A.n Y E Y [ W 9 t.] Q  .{ K.S C.@.' d.O 7 v.b.h.h.1.2.>.-.>.:..X{.&.;.2.f.c.g.g.g.g.g.x.M.3 + h E B v T Q y m.m.^ | C.B.k e.` B E.d.A.9 N.T 6.G.Z. .",
"y Z.| 6.6.A.A.Q e.[ D.Y.T.p Q B./ Q Q H.J F g J #.% 6 j.c.h.1.=.>.s.p.s.p..X.Xp.2.=.;.k.l.g.g.z.b.b.M.3 @ g W V.d.| ] n V.7.Q d.E B.j ) Z.] Q.A.Y.x | ~ m.V.W.` ",
"a ) e.N.} 7.A.Y [ B.] B.^.z [ [ ) K.] Y.R +.Y.{ F   7 ].z.2.,.-.>.s. X|.|..X.X.X X&.=.2.2.f.h.z.g.l.M.3 $ z  . .W { U.R  .A.R { Z.T.; { | [ ] 6.{ Y E | 6.D.e.~ ",
"y T B.N.6.B.[ ! E 6.B.) E.p K.) J [ n W x W.Z.qX#.% t '.2.*.:.0.9.N :.jXcXcXkXcXgX0.0.t =.<.1.f.g.x.'.3 % S  .c | } r._ W R U Q T H # E ]  .n.6.] x [ ] ^ m.7.[ ",
"@ [ P.T.t.! P.c t.N.6.! P.5 T ` t.B.} ~ x T.m.A.#.  &.].p.&.>.fX).. s BXnXcXMXcXcXfXi.2 2 &.-.2.f.j.p.3 @ :  .S.! 7.Z.D '  .Y N.N.E.0 / ] ! B.S.x j | | 6.6.B.! ",
"s 6.! ~ ! N.! [ 6.7.A.t.Z.# ` [ I.t.] n x  .V.B.' . t p.p.&.>.cX~.. w BXnXs.s.s.fXMXeX  e 9.,.<.1.x.0.3 9 O R d.V.^ e.l { V...Q V.6.9 E  .N.n.| D N.E B.! 6.[ ~ ",
"@ A.! [ 6.` 6.T.! t.D.D.E.9 J [ P.B.C.l { d.d.@.( . t '.2.&.:.cXdX4 b nXMXa.a.a.s.nXeX4 b fXs.&.*.].M.3 ; : U  .7.m.7.E | ! ^ B ^ A.l ! { T d.^ 9 +.| 7.! V.) ` ",
"k T F.! B.B.e.T.g [ [ A.I.$ H [ 6.T @.l U L.#., - . t ].a.7 :.mXjXi.(.nXMXgXMX6XgXnXjX8.i.MX X&.*.].,.3 @ O G  .~ F.` + 6.V.B ^ W 7.y D E 6.W | $ ) A.N.6.7.] H ",
"5 a 5 9 a a y i y $ 5 i z % 9 $ # v v 9 p u < X   6 =.x.2.&.:.xXnXzXBXVXnXnXnXMXxXVXNXNXNXxX|.&.=.].,.6 . X O : s i S 0 A g v 5 y k g + $ i a k @ d j p 5 9 z g ",
"H ^.A.Z.Y.D.B.W.D.| T k } H B.E.tXY.W.8XqXO.G o N ,.1.f.2.&.:.kXlXlXNXxXxXnXxXnXNXlXNXNXlXlX X7 ;.2.j.-.r + $ U n ` J.o.r.) +.7.T N.l [ [ N.A.B.e.A.A.B m.7.I.| ",
"k I.| D.W.qX| E.e.7.R N.tXg 8X8XY.tX^.^._.7.o.% t j.l.f.1.7 <. XXXNXNXlXcXNXlXNXxXxXzXNXlX{.0.&.=.f.f.'.M.$ $ Y T W r.r._ ) S _ E } x J A. .B.A.C.| wXj B.uX/.r.",
"z P.A.T.qXD.N.B.T.Y [ B.I.j qXuXyXP.D././.F.#.  t ].f.f.1.<.:.N 9.lXkXkXkXkXkXlXkXlXkXkX|.9.:.>.<.h.f.x.,.3 $ U Y | E R Q / E ) | | H ) A.A.Y.D.9XK.e.x Z.W.I.) ",
"a +.A.Y.B.tXD.W ) N.Y.T.qXi A.8X+.e.P.wXr.S ( $ t '.j.f.j.'.:.. N (.hX}.}.|.XX}.|.}.dXjX8.2 t M.j.f.f.f.,.. 5 @.Y ] B B.B m.v | 6.! H e.+.N.B.N./ Z.+.Y qXB.e.e.",
"z } Y.Y.N.A.Y.] ) A.E.Y.qXg R E { S.} J t.E L.R M t t t 7 r ` 9Xu.L M M L L L 4.4.4.4.5.w.5.7.M >.;.<.-.>.3 y x c d.T  .d.Q ^  .) C.E A.A.B.A.) | ) E k ~ e.e.[ ",
"j [ +.T.| 6.g A.qXZ.E.qXB.g P.^._.^.W.yXwX_ L.@.T $       O #.DXpX* = X * < = 1 1 X = * X.DXpX- X   . . a 0 s i c n d J R d A.G.Q W.E j T W ] N.N.A.tXB.T._.I.B.",
"d d.N.[ R | / D z z x g 7.i E.^.^.Q.^.P.t.P.9XR.d.( > < G pXSXKXSX0X0X0X0X,X+X+X+X+X+X+XpXFXSX+X$.< < : l @ ` P.7.P.{ ' L.A F.6.e.t.n t.W.A.D.N.B.N.G.A.^.D.B.^.",
"9 | W R [ E.R B.+.e.Z.C.yXi P.A.Q.uXN.E.B.I.A.R.R.L.Z < +XLXLXLXKXJXJXJXJXJXJXJXJXJXJXJXKXPXPXPXaX< %.U.@.O O.J [ T N.D _ H ^.m.6.Z.W N.B.) Y.A.Y.A.Y.B.W.N.N.Y.",
"# R E r.E.Z.j | E W Z.I.P.d qXZ.G./.W.P.W P.} uXR.R.%.< +XPXaX0XaXKXJXKXKXKXKXKXKXKXKXJXSXpXCXPXaX> %.d.U.# J ) 6.` | R J ) T A.6.[ E 7.N.] e.yXA.N.A.E.B.^.T.! ",
"y ] e.P.N.Z.d ] P.] Z.P.A.d P.E./.P.D.6.c v x Q.Q _ , < 0XIXpX< 0XLXLXLXPXLXLXPXLXPXPXLXaX= o.KXaX< f @.' u l / k v l v : Q Q 6.| D.n z ] ] [ W H W [ Y x n [ Y ",
":  .E.e.Y.K.j +.K.N.Z.{ A.z N.K.Z.Z.T.Y.Y S.tXQ.P.L.F = J.IXaX: #.LXLXPXKXKXKXKXPXLXLXLXpX= o.KXaX< Z U d.$ ' d.| ] S.N.N.] J n n T z Q A.Y.Z.R D.A.A.tXY T.T.] ",
"g N.| } } { H [ K.C.N.e.Y.d +.J.Z.W.T.T.{ S.W.T.E.r.Z = L.IXaXA 0XLXLXLXPXJXGXHXLXLXPXPXaX< #.GXaX, , o.d.$ U { ! 6.B.N.A.Y.7.6.! [ x ] T.A.G.W A.A.A.tXH T.Y.[ ",
"@ Y l d j Y a l H z H N.| # e.] D N.~ c Q Y | ) t._ f O } vXW.f sXIXKXKXGXDXFXFXJXJXJXJXsX= #.UXrXO ; l U $ v l k k k g j g g H a k g i Y W x i x n Y ] y n k p ",
"j W / H x { e.{ | / Y ` N.p H Q { U ! n.6.| W D t.u.h o L eXD.t.pXJXJXDXHXGXFXFXFXFXJXJXaX( y.vXF.+ 0 o.@.u W  .[ 7.} r.B.K e.[ B.Z.g [ D.e.P.[ Z.) W.R.P.I.P.{ ",
"i | [ } Y +.e.Z.e.| +.A.E.: tXC.d...7.D.B.P.K.R.u.S ` y.(.dX!./.aXIXDXGXFXFXGXFXGXFXFXDXaXt.eXjX!.L P _ ( # | m.6.G.P.P.r.e.Y./.D.^.k N.T.B.A.E.P.Y 8XZ.B.E.yXe.",
"x { { } E [ e.{ { | | Z.A.# | U.U...V.7.e.+.U.H.J + y.BXjX(.G.~ rXUXHXHXFXFXFXFXGXJXDXIXiX5.!.dXjXBXu.- A q D.7.F.G.T._ K.[ F.G.G.^.g E Z.A.A.E.N.N.A.Y.E.E.B.e.",
"z e.} e./ | | ] ] e.K.| B.p | | U.x B.e.r.C.@.L.A + 7.jX!.L /.iXaXpXAXGXFXFXFXGXGXGXSXaXaXiX!.8.~.jXw.- A ; n.7.n.n.A.7.! H A.F.N.D.@ Z.Y.D.P.N.j | W ] ` / W j ",
"h ~ | | x H } l x ) | D N.g / +.x ' ` t.) J r.o.f ; ).vX5.8 wXDXrXo.pXGXGXGXGXGXGXGXbXw.pXUX0X+ M dXt.X G f 6.T.B.D.{ E K z z H E W j B.Y.A.E.K.] 8XP.E.I.D.E.t.",
"H } H ) k { e.) D P.] N.K.p j [ Q z ] O.E.J d.d.f w !.vX4.8 w.aXrX1X1XZX7X7XZXZXZXZX5X,XrXaXu.+ L (.w.8 f : x T T E [ a / 6.A.A.D.D.n 6.Y.Y.N.) ] +.} e.r.! H K ",
"z e._ e./ ) | Y E | A.K.N.u d j n z D l E y @.L.A j /.vXo.& G ,X2X5X<X&X:X&X&X&X;X&X<X1Xq.X.V o M dXy.0 S 0 ' Z.6.D.Z.p [ A.e.Z.W.Y.! W N.[ N.A.A.E A.+.P.Z.E._ ",
"u ) g k k H [ +.E E ) [ K.y e.| P.P.C.@.C.l D f S ! !.vXo.& $.2X<X<X>X$X=X:X=X$X:X;X>X4X2X,XG * L (.w.4 , + O.S.Y.B.| Q Z.P.J.qXI.uX) | A.| 8XN.tXR e.Y.K.R.8XE ",
"x W H E H j [ / Y @ R z ~ a e.e.t.qXC.C.{ l h + J w.(.vXP & #X5X4X%X:X-X=X-X:X=X-X%X%X@X4X5XC & L }.5.4 o o S r.{ N.] Y N.e.wX7.A.wXe.` A.B.E.E.E.J B.P.B.E.wXe.",
"E | l { ) l K.[ ) / +.} C.i e._ } B.E d.l Z u.u.eXeXjXvXI & C 4X%X;X:X-X=X-X-X:X:X%X:X;X>X4XC & 4.}.).5.A A J r.( +.D ) ) n [ K E | g P.yXE.E.Y.e.| E.P.yXqXP.Z.",
"D [ B.W T { { N.[ } ] } r.5 6.t.z A. .' , q 9XvXvXvXjXzXL & 3.@X;X;X=X-X:X:X=X=X$X$X$X:X:X&XC & 4.}.(.(.jXiXu.0 f @.J 9Xd.W D.e.T.E.z P.wXyXP.P.[ +.r.yXyXE.P.| ",
"g ) { Z.W R Z.) Y +.e.] B.a J [ W 7.n.d.%.O I P ` 5.(.jXL & 3.@X%X%X*X=X;X-X;X;X;X;X%X;X;X@XC & 4.|.(.i.~.eX` @ Z H.f U.R.Y B.Z.T.qXJ D.Z.qXyXI.T qXe./.E.tXyXt.",
"l ] x | z y Z.} e.W ] { +.i Y e.{ } W  .; O o + + 4 y.dXA & 3.3.#X*X*X*X@X&X*X*X@X*X@X;X@X#XC & 4. X5.4 e 8 - * A r.g  .N.i C.I.K.N.z Z.Y.I.E.P.j J.r.E B.t.qXe.",
"a W E H E ] R H E H Y E E # E E Y W j ..F F 0 q w n S ` q e q.3X3X3X3X3X3.3.3.3.#X3X3X3X3X#XC & L F.K 8 8 & - O : i a p Y S ; A h T 9 9 a a 9 z g g g H 9 p d i ",
"j e.N.A.Z.e.P.} C.tXY.qXtXg Z.yXY.d.d.U.S.U.K.9X@.L.q - * & i.fXgXgXgXfXi.q.w.w.i.1XfXfXfXfXI * - : ( _ K.; K.S.I.R I.P.I.iX` T.qXI.H Y.E.t.R.I.B.t.Y.E.E.I.E.P.",
"x N.A.N.+.] S.e.N.A.+.E.E.g Y.R.U.U.d.d.Q.tXK.@.9X@.A q > q i.fX.X.Xi.9.t.y.F.7.4.i. X|..XkXK O - ; F L.d.# tXQ.Y.[ E.^.E.yX| | E.Z.H qXP.K.R.T.| r.Z.qXP.B.B.t.",
"z  .N.B.P.| } } / P.P.Z.qXj C.A.K.wXF U / ] ) ` B.) u _ V w )..X.X.XM 8 ( } r.[ 0 4 0.fXcXmXI = F R +.E T.a A.uXQ.^ G.N.+.R.@.H.E.R.H R.W.Z.iXT.N.8XY.tXE.W S.t.",
"y ] E Y R N.) j ) ] C.| Y.z N.Z.E.yXo.I.+.B.P.P.G.uXJ d S y. X|. X|.K X ( L./ O.; % 8.|.cXmXP = f ( E H _ # | B. .j c H Q { F o.8XA.Y ) Y.K.8X8XP.K.qXtXqXe.C.A.",
"y ! | W N.B.T.{ Z.R e.Z.W.l { / { O.d K.Z.+.R.E.| N.i 0 !.dX|..X.X}.h X U C.O.E ;   8.|.cXmX` X S K [ J C.S _ O. .e.7._ K.R. ._ R.{ H R e.P.Y.Y.qXiXT.C.E.Z.Z.| ",
"g N.N.A.N.N.Z.+.A.N.C.Y.R.d C.P.A.U.u N.{ J.wXqXS.B.; + /.BXkX|.0.i.S , F U.{ _ 0 . 8.|.lXzXP X A ` K o.t.S t.E.K.E.K.Z.Y.Y.n./ N.| T t.[ { H W +.| } D W | J W ",
"g D.~ B.Z.T.A.[ Y Y.S.D.I.g +.C.U.d.a S.N.r.tXR.E.d.< - ~.zX.X}.M 0 E ( @.@.C.{ 0 o 8.XXlXvXL . S / S ) | T B.Z.F.^.6.B.Q.G.^ ^ Y.Y.D K.R.E.} J.C.R.qX/ P.{ P.K.",
"a Y.A.6.e. .N.N.D ) E { W l K.| U.n.d.T Q { R +.@.d.= - /.NXoX}.w   J ( g { K.J f 0 ` i.jXzX5.s H A R R { c e.B.~ T.Y.t.A.G.7.7.e.Z.R E.E.R.{ e.e.tXE.J Z.e.C.C.",
"j D.A.6.| 6.] A.` 8X+.| A.D +.R.[ A.J C.T.qXT V.U.9X: = ~.mXhX}.w + K r.J._ r.J S _ S s ).hX(./.E f F O.d.9 x x D Y W z H +.~ Y W J 9 N.Z.H.Z.K.e.{ Z.l A.{ +.E ",
"g N.B.| T | Y A.Y E.e.e.R.S ] ] H e.( u.} P.j A.S.K.= - eXvX X).A 0 o.} } } 7.! l u.q X 8.}.lXBXK O ( R d.i / A.S.C.L.U.l 8XK.K.L.Z.i K.K.{ } P.C.R.C.Y / ] J E ",
"p } t.O.D.] | B.k 6.B.e.W.H [ ) | yXS wXO.( [ D.Q.C.> 8 i.dXP h F #.Q.6.~ t.t.` S @.q X y.|.lXNXD O _ S O.; N.e.] P.Z.I.z e.R.L.Z.A.k P.K.+.W Z.+.Z.e.Q | T.D.Z.",
"g e.} [ e.` T. .z } ] [ yX9 [ E 7.K.A J._ _ T | H.+.w w  XdX0 X U H.N.Q.7.[ 6.` D 9XA - 8.~.hXBXS X ( r.( 0 A.Z. .P.} D.x wXP.P.P.t.i e.P.e.e.E.N.e.A.W t.B.N.6.",
"9 H H z k k n Y Y x n n g 9 i p g l d / u E l u = q F.(.}.(.0 X : / H h g j H d 9 z : : I b dXvXA = 0 l f 0 g j c z S z a a i p 9 Y g 9 y p z z x x Q a k x z k ",
"a [ } P.A.Z.e.[ A.T.P.A.Z.p A.t.^.A.H.Y.D C.+.L.: ; eXlX(.!.h A +.W.I.E yX^.F.t.z N.L.J.e o eXmXI X o.+.r.j e.] } W K R.^ Y e.t.t.I.p P.S.| Z.D.A.[ P.| W.W.D.Z.",
"g ! W e.e.D.P.N.e.[ 6.Y.W.h t.B.D.B.S.W.) qXN.R.q - ~.hXm b J o.| B.r.r.Z.e.8X+.k B.A.K.q o ).lXh = A t.r.h r.[ | Y.| Z.D.n | D.e.N.a | B.Z.W.E.A.Y.uXG.D.yXA.6.",
"g r.[ [ T.6.! Y D.N.T.T.e.k e.D.T.B.{ K.j P.K.H.> - i.}.4 ; J.J.| B._ Z.Y.B.J.{ n n.V. .A o 8.}.w X _ J.J _ Z.P.B.t.6.e.P.T P.D.6.A.$  .e.e.W.N.| Y.n.E.B.6.D.6.",
"T | Y.| ) 6.[ x [ D.D.| e.! e.W.F.6.B.qXl '  .{ = 8 i.|.9 $ r.I.T.n.R A.B.n.d.@.@ m B Y = X ).dXh X G O._ i P.N.[ [ T H T y T ! H T # [ Z.e.T.A.A.B.Y.Z.T.Y.D.! ",
"0 E ~ e.6.6.| W A.Z.D.B.Y.y h z n ~ T } l +.N.d.> & i.eX- : B.^.T.Z.D V...Y.d._ 6.6.V.N.Z X i.dXw + _ E J.i H n z [ j [ 7. .] [ ! N.x A.| | n.W 6.V.6.V.[ T.B.! ",
"x [ ) ` } ! ] c [ 7.B.Z.e.T | R.r.O.u.r...S.G.R > & X.,X& > ( r.[ 7.6.] ..] d.Z e.E.Y.d.%.X q.i.8 X @._ O.u | B.Y.B.i e.A.7.B. .) [ [ k B.[ Y ..Y.D.]  .t.V.7.} ",
"i B. .] N.| D.[ ] ] Y Y p T A.e.r._ P.A.Q S.^ ] > V C C > > L.R.D.^.P.T.Q.tXd.( r.@.S.d.%.= V C > X _ r.O.i ` E ] V.d [ [ B.N.] T t.] i j H j k Y x n T c n W n ",
"% Y z H n T k n T [ } [ Y.n e.e.t.6.P.Y.Q d.n.B.` w.V P o.{ L.P.T.A.V.G.S.S.tXR J.9XQ R.G > X.X.q 0 O.S E ; Z.^ B.e.0 6.[ Y.W | | | k ] ] ] 6.e. .6.D.^.E.t.F.E ",
"p T T 6.G.W [ 6. .] ~ Y.D.E B.[ ] ! ^ B Q  .d.A.I.I.I o.yXY.P.Z.C.Z.V.uXQ.B.U.F r.r.S.' R.F u.,XpXA O.B.8Xg ^. .) A.$ ` Y B x x B T y ] N.] e.P.| [ T.D.6.[ A.[ ",
"j [ [ [ Y.W ! ! 6.7.E B.D.y n B n B  .^ ) R 6.n.Y.A.h C.yXR.Y.Y.H.@.V.Q._.U.O.R o.} ] D S.z t.r.J.S r.Z.O.i N.7.N.A.H } e.Z.` H | ] z / E W [  .) ) n.6.[ e.} [ ",
"z T A.^.6.T | D.6. .[ Y D.a 6.! n.n.V.^ E _ A.n.6.W.y d.H.9XT.A.J.@.G.G.Q.Y.T._ O._ Q { B.! /.! u._ Z.} R.S W ^ ] [ z _ e.6.6.H W | a R } | N.| [ ! A.T.n e.6.7.",
"g 7.] W N.] B.[ D.N.[ B.} p [ I.| K.T./ J O.^ d.V.E.: S.R.R.A.uXd.sXV.D.n.U.P.+.Q d...U.R.O.I.D O.K +.[ r.g ] ^ 6.B.J [ e.7.D.g E { p x x E K.{ ] ) e.A.! A.6.t.",
"y p k k n k T W E Y n B E @ k H h l F l f l T a x Y y l ' D B Y F Q x Y x x p p $ v a v G h d u D : d n J 5 j s a i g k p g j # d y 9 9 9 i g p p 9 p i i g k k "
};
