/* XPM */
static char *_c63eea9089542edf9eb4f2e0acf58083IJu10ZwtL5rnyOm[] = {
/* columns rows colors chars-per-pixel */
"80 80 256 2 ",
"   c #1B0700",
".  c #1E1603",
"X  c #260900",
"o  c #281702",
"O  c #311000",
"+  c #37250D",
"@  c #342C14",
"#  c #353215",
"$  c #3B361A",
"%  c #3E391D",
"&  c #393418",
"*  c #2C280B",
"=  c #3E3A20",
"-  c #560200",
";  c #4B0F01",
":  c #6E1107",
">  c #423B1F",
",  c #4A351B",
"<  c #4C2A12",
"1  c #692B13",
"2  c #433D22",
"3  c #473B29",
"4  c #573A27",
"5  c #783624",
"6  c #6E3627",
"7  c #3E4927",
"8  c #454125",
"9  c #494326",
"0  c #464329",
"q  c #4B452A",
"w  c #4D492D",
"e  c #46492C",
"r  c #514C2E",
"t  c #57462B",
"y  c #4E4B31",
"u  c #4D4531",
"i  c #524D32",
"p  c #574933",
"a  c #555135",
"s  c #595436",
"d  c #56543A",
"f  c #5A553A",
"g  c #5D5A3D",
"h  c #555C37",
"j  c #47552F",
"k  c #67452B",
"l  c #615B3E",
"z  c #64553A",
"x  c #744D36",
"c  c #5C6439",
"v  c #67663A",
"b  c #5E5C41",
"n  c #5A5A44",
"m  c #635D42",
"M  c #665D44",
"N  c #765A43",
"B  c #5D6644",
"V  c #4F6253",
"C  c #656145",
"Z  c #696346",
"A  c #66644A",
"S  c #6A654A",
"D  c #6D694D",
"F  c #676C47",
"G  c #726C4E",
"H  c #77674A",
"J  c #6E6C51",
"K  c #6A6853",
"L  c #726D52",
"P  c #7A6D55",
"I  c #776A55",
"U  c #6C7153",
"Y  c #757155",
"T  c #797356",
"R  c #76745A",
"E  c #7A755A",
"W  c #7D795D",
"Q  c #797A57",
"!  c #6C744A",
"~  c #7E7C61",
"^  c #797862",
"/  c #6B7C68",
"(  c #527561",
")  c #96170E",
"_  c #92120D",
"`  c #AA0905",
"'  c #B60607",
"]  c #A41817",
"[  c #B81617",
"{  c #AF140B",
"}  c #91201C",
"|  c #B2231C",
" . c #992D27",
".. c #B83837",
"X. c #AE2F2D",
"o. c #C90909",
"O. c #D50709",
"+. c #CB0D13",
"@. c #D50B14",
"#. c #C81618",
"$. c #D4161A",
"%. c #CA140A",
"&. c #E3191B",
"*. c #E20A13",
"=. c #D0271C",
"-. c #D91D22",
";. c #CD1D20",
":. c #C82627",
">. c #D5272A",
",. c #C92C32",
"<. c #C53539",
"1. c #D63335",
"2. c #CD312F",
"3. c #E7272A",
"4. c #E32D32",
"5. c #E83737",
"6. c #F22D34",
"7. c #E9221F",
"8. c #974B38",
"9. c #8B4A33",
"0. c #A3483C",
"q. c #CD4D3C",
"w. c #BA3E40",
"e. c #D13C43",
"r. c #F43942",
"t. c #9A5843",
"y. c #875445",
"u. c #B94745",
"i. c #AF584D",
"p. c #85654A",
"a. c #866D55",
"s. c #986756",
"d. c #817C5E",
"f. c #86755A",
"g. c #95755B",
"h. c #98654D",
"j. c #AA6A56",
"k. c #AD6F52",
"l. c #837D62",
"z. c #8B7C63",
"x. c #897B66",
"c. c #977B64",
"v. c #887E7C",
"b. c #A57A63",
"n. c #B57567",
"m. c #C94748",
"M. c #D44B4B",
"N. c #CB584C",
"B. c #D36B5A",
"V. c #D5776A",
"C. c #E54142",
"Z. c #35817B",
"A. c #7E8161",
"S. c #7A846C",
"D. c #768875",
"F. c #6E8563",
"G. c #86835E",
"H. c #938B5B",
"J. c #858165",
"K. c #898366",
"L. c #868469",
"P. c #8A856A",
"I. c #8D896D",
"U. c #868A69",
"Y. c #93856C",
"T. c #918B6E",
"R. c #99876A",
"E. c #95946B",
"W. c #8E8C71",
"Q. c #898876",
"!. c #928D72",
"~. c #9B8C73",
"^. c #988B77",
"/. c #8E9374",
"(. c #959175",
"). c #999476",
"_. c #969479",
"`. c #9A957A",
"'. c #9D997D",
"]. c #979979",
"[. c #8D926B",
"{. c #B5876C",
"}. c #A48C74",
"|. c #A19C7E",
" X c #A4967B",
".X c #BA967A",
"XX c #B18D70",
"oX c #B1A27B",
"OX c #BC855E",
"+X c #D58A6C",
"@X c #C88C73",
"#X c #C89479",
"$X c #D89677",
"%X c #CA8E6F",
"&X c #E79577",
"*X c #C9A978",
"=X c #D8A57D",
"-X c #70AEA6",
";X c #73A093",
":X c #78C0BC",
">X c #7BCAC4",
",X c #9D9B81",
"<X c #969381",
"1X c #899387",
"2X c #A39D82",
"3X c #A89B84",
"4X c #B59B84",
"5X c #9BA487",
"6X c #91AD9A",
"7X c #A5A185",
"8X c #A9A385",
"9X c #AAA58A",
"0X c #AEA98D",
"qX c #A6A588",
"wX c #B8A688",
"eX c #B4AC91",
"rX c #B4B398",
"tX c #B3BCA2",
"yX c #90BDB1",
"uX c #D29483",
"iX c #E89A85",
"pX c #C6A48B",
"aX c #DBA586",
"sX c #C9B288",
"dX c #C9AA95",
"fX c #C7B597",
"gX c #D3BA98",
"hX c #D9B08E",
"jX c #E5A689",
"kX c #E8AC92",
"lX c #EAB597",
"zX c #F0AC90",
"xX c #CDBBA2",
"cX c #D7B8A2",
"vX c #F1B7B9",
"bX c #A0C5B6",
"nX c #D0C398",
"mX c #D9C4A6",
"MX c #D5CDB1",
"NX c #FBC9B8",
"BX c #F6CEAE",
"VX c #F8C39B",
"CX c #FCBDC2",
"ZX c #A6E6DB",
"AX c #FFD9D9",
"SX c #FACBCB",
"DX c #D8E4CF",
"FX c #FEE5DD",
"GX c #F1E7CF",
"HX c #FFDDE2",
"JX c #FEE7E9",
"KX c #FFF4F4",
"LX c #FFFAFC",
"PX c #FFF6F8",
"IX c #FCF2ED",
"UX c #C9E3D5",
/* pixels */
"r C g Z T S D W d.Z S T d.a Y S C Y T G T g E L L E i S d.d.T.J.E _.`.g L.^ W l h A.T U ~ ~ m ~ ^ d.T W E > d.l.x.R l.P.i E I x.Q.!.i L K ^ R ^ U.Q.W.g E ~ ~ M ",
"2 J.T I.T.Y d.`.!.T.).!.`.9 (.'.I.oX|.'.|.S `.!.2X!.S E 8X|.7X(.^ _.0XZ _.L.T Z S ^ 7XU J.'.u x.x.C l.W P.# I.2X`.(.!.`.m 9X!.,Xx.I.m ,Xx.!.x.2X_._.!.W !.'.3XW.",
"> G J.d.K.Y d.'.|.).I.).J.g ). X].).'.T.T.Z 9XrX`.2XZ T |.(.T.d.!.^.).Z _.L.L.D A _.,XL.'.Y.a l.L l.!.K.E % l.`.0X0XW.L.R `._.'.W.l.n _._.Q.Q.,X].I.W D _.J.^.Y.",
"$ d.J.`.d.D d.J.T.).W G.K.a I.G.|.).'.(.K.m (.9X9X'.z Y 9XP.|.E.).3X^.M ^.l.I.^ K Q.R l.!.Y.t x.!.l.d.(.K.% L.I.J.9XP.(.T W.~ '.P.Q.0 x.W.I.!.L.I.~ f b `.,XP.P.",
"> I.T T.I.Y Y G T g D Z E f (.K.(.). X8X|.m `.`.9X2XG J.7XK.`.!.].W.Y.f L.x.Q.l.A <XL.^ ~ U.r W J.K.W I.J.> L D g J A E S 0Xl._.x.,Xu L ^ L J A d J E M !.7X!.K.",
"9 J.I.d.K.G K.K.d.d.K.(.I.9 d.|.T.T.(.'.'.Z !.`.7XP.l K.I.E T W J.E l.g ^.^ x.^ u L.^ ~ n D w K.K.Y T.U.J.& !.`.L.L P.P.~ !.~ m ^ !.M L E K L ^ ^ A.R J b 2X!.^ ",
"> G.E I.K.D ).d.K.Z K.).).8 D T l g s Z T d D I I C i '.eXP.!.8XI.0X3Xz Z *   . . o |.d.L 3X2 J.W W [.I.Q 7 P.5X'.D U L.U.W.'.W ^ I.m I.L.l.U L '.(.'.W.C (.`.W ",
"> K.P.I.T.D K.J.I.Z d.P.'.w d.T.T.T.D `.8X'.2X!.2X2Xw I.(.T.`.E.d.I.3Xp X X X       o fX~.(.q d.F ~ _.~ S * I.I.,XR W L.W R W._._.x.i Q._.W.L.F 5X,X'.~ d J.`.E ",
"> r 9 a f s Z Z G a S |.).$ K.).'.(.f (.|.8X'.2X`.|.G I.I.'.!.).|.K.~.O k %X{.{.{.{.#X< Y.^.M A U Y G A.[.* W (.].A J.E Q.A L./.!.^.d W.I._.R d A C y 8 d g Z C ",
"w d.T K.T Y d.T.T.G J.).(.w T.I.].8Xl P.P.'.8X9XI.K.C K.K.E.|.`.K.T.}.N n.zXjXjXhXjXlXb.~.x.0 J.S F Y J.W 0 ^ W./.A ~ W [.R W.(._.!.u E W W.A.R I.J.l.~ L T `.T ",
"8 T E Y G.L d.J.K.C T.E (.8 K.(.K.8XD T.P.!.|.'.!.3Xs d.T.(.|.3X2XY.~.pXlXjX=X=XaXaXjXlXdX}.i J '.Q Z G _.* ~ J.Y C W.~ W A ~ W.^.2X$ J W.!.W D ~ Q I.(.P.S J.T ",
"8 d.E J.J.J.T.).T.a K.J.'.9 K.|. X).g P.|.!.T.K.`.!.r d.I.8X|.2X2XY.p.@XjXjXzXjXjXhXaXVXc.R.u L W T W f _.# J.J.W L _.E D R S E m D # M l.(.K Y R A._.P.T.E T T ",
"r W G K.d.d.I.T.I.9 T E K.9 G.I.|.K.Z I.`.P.L.^.!.P.i !.|.|.`.|.^.l.a.pXjX@X%X=X=XOXkXx O f.= n R E E W W # m L J d x.^ i L m g m ^ 2 f K D e A n B E S F T T Z ",
"9 Z r a a a f $ C s l G Z 9 S G G v l g r s i i n D q w f S s l m z g.9.5 9.k.$X=XaXBXb.k , C h g h d d D 2 C Y W S f i g R d L L K.$ D S C W W D d S E Y G G f ",
"> Y S T Y K.T.Z K.T G.Y |.f I.E P.!.|.(.D (.`.`.`.K.Z K.K.T l.K.~.H {.1 ; 1 y.%XlXNXNXBXuXx J.^ d.K.d.d.`.% W.x.!.!.l.L ~ P.D P.W P.a R L J ~ I.G g d.(.!.!.).G ",
"r W d.E I.W K.C T.T d.`.!.a '.(.(.E E  XE 9X2X`.`.P.l d.P.T.J.!.~.p.#XaXkX@Xk +XlX*XlXgXaXg.z x.W G l.T.Y.> P.l.`.L.l.m L Y.W `.~ J.a P.R T I.A.A.a P.P.E P.).Y ",
"> W Q T.P.d.K.c K.G.T I.(.r E T |.W L.L.M x.!.I./.[.g T z.l._._.P.p.XXjXjX=X$XVXVXuXkXkXhXn.+ ^ R U.P.l.P 8 d.d.L W l.m L x.W l.I.I.r d.E K.K.(.K.r G T.|.d.K.G ",
"# W D G Q Y !.l Q I.(.U.I.8 C m T Q B K u ^ _.^.7X(.f Z G Z ^ K Z l #XjX=X$Xk.OXk.j.aXlX#X4 3 3 M q b A W 9 f.G.~ I.l.C ^ l.T.d.(.J.f D E T T P.T.w d.K.T.K.d.Y ",
"9 S G G T.T.P.v Z Z G T Z r d.E D d.W A.n x.^ ^ `.).z Y K.E E R ). X.XhX$Xk.; ; 1 < @XkXg.  l.x.P L W.U.d.r Z l a Z Z 9 d.P.E d.K.K.f T Q C '.G.T.9 G.D G.(.G.T ",
"w d.G.W d.I.T.Z d.d.K.'.].9 D J.D B D I.d n i m z.d.w J.]._.L A [.a.}.k.jXk.i.k.k.0.j.aXc.X P.I x.L T `.T.s H T.d.J.E l P.d.F A.U K.a T J.T (.K.(.a d.S d.`.T.d.",
"> Y J.K.T d.P.Z E d.G K.`.g I E L K.E `.U S.L.W H z > U E L.R M  XH.R.{.jX$X$X9.t.$X&X#Xp.M I M f z E z.J.g E E G T ~.D T T.F Y G.K.> L E T E K.T z Y W W !.d.Z ",
"8 C K.K.d.d.G.S S d.I.G (.i !.L m W n S d /./.,X~.z.Z Y ~ ^ ^ b ! R.R.g.%X=X$X5 9.zXzXh.< a.a.Y.J.Z d.f.H f U C T l.Q S v C l G D D % D T E T d.G m T Y T K.d.d.",
"& d.T.T.d.d.d.l d.K.d.G T.2 Z D W !.W M g ].L.!.(.T.D Z P.x.L y i D p.x  .=X8.: 9.iXiX5 X y.P E ! Z Y.c.L w Q K.Y d.A.c G d.v E J.].2 Z Q L I.I.s l E d.d.d.Q G ",
"w f.G Y H d.T P l.f.P.K.x.> I E ^.l.J M B R J.I.I.P.J Z x.P.x.P H N n.i.t.&XjX$X+X+X&XN.5 1 y.z.Z S Y.a.Y.@ A ~ K.T A.s Y Y.D T K.W > D T d.K.E C Q D K.G G.Y G ",
"$ Y.D T d.T d. XG K.Y.P.^.> m W W.l.x.d L K.J.J.U.].D J.l.E c.y.j.B. .X.i.V.+X&X$X+XV.B.q._ } 8.x N }.x.x.= M ^ E I.Q B Q I l.M L W.d Z E L T T > d.Q d.S T.Y G ",
"f G T.Z K.P.d.).r G T (.^.& Z L x.L R f S U.G.Q U.L.D D l.l.s.y.N.<.[ ,.N.V.jX#XaXiXN.M.1.[ <.} t.N c.l.I.= R ^ T l.U % S.l.I I I l.9 d Z E Y I $ T I.K.d.T T C ",
"# 8 > 9 9 8 8 r 9 $ > > n @ % = 3 q p w 8 7 7 % > 2 a & 3 4 6 u.<.>.#.` e.zXGX.X4XNXu.,.3.@.3.1.} 1 4 g d @ 3 3 2 y a % i n 4 3 2 d 0 # 2 0 9 l & > a 9 % 2 r s ",
"D `.K.T.(.T.K.).T.d.m f E g P.^.2X!. X'.|.A.Q U.!. XD D c.XXi.] ;.4.3.+.] i.FXGXDXCX..1.-.@.6.;.:. .s.L.x.3 n N C Y J.T ~ A ^ P K P.f L l.W P.K.K.I.I.l (.d.(.d.",
"s (.J.T.(.|.E '.K.E D J.2Xd 2X2X!.9X3X8X|.J.]._.^.4XP x.c.t.w.] -.&.7.4.[ X.HXKXJXSXe.4.&.o.7.+.[ w.t.c.^.@ P K Z G d.d.E R A R A E f L l.l.P.I.J.d.|.r T.`.|.K.",
"s Y.P.).7X(.K.J.T.D L K.).a <XqX7X!.R.|.E.J.,X9X2X`.I p.#Xi.M.' $.7.%.5.>.w.AXKXJXCXe.3.7.O.&.@.` e. .s.c.$ K K l f.v Z A A n L l.~ b I I.l.`.W.).P.J.r T.'.).G ",
"q l.I.(.J.|.I.Y Y K.`.].`.i !.2X~ U.U.~.J.D '._.`.3XN N j._ 1.' -.6.@.+.:.N.JXKXKXCXe.3.7.O.&.@.+.,.X.u.XX3 A K.Z H G G.Z P.n ^ E L m ~ l.P.K.x.L d.P.v |.T.T d.",
"d W (.(.K.T.(.G Z T.`.(.2Xi b A R A.d.D T D _.U.2X<XE p.t.m.[ o.*.6.$.+.[ u.JXPXKXvXm.$.O.*.*.o.' e.<.0..X, F c l W l E d.G D ^ ^ E S P.!.x.T.G E L Z d G W K.W ",
"i W E !.L.~ y (.'.P.`.,XI.a I.'.5X|. X9X5XU I.U.<X^.P b.0.M.{ o.@.@.6.;.` ..JXKXJXCXw.#.@.*.*.O.@.5.q. .j.4 n 0 b g r s G q E.Y.D ).Z s Z D W d.J.T.].J.'.7XT.P.",
"q ~ L.T C l.m m b g b g E e '.'.qX_. XY.^ [.].T.W.l.M g.i.<.| ` ' +.r.>.{  .FXKXKXCXw.;.@.@.O.O.%.=.X.i.s.3 K v.T U.W T P.l K.z.d.J.Z l.(.P.I.U.J.d.(.(.'.K.T.`.",
"2 l.J m W _.S J.E E l.P.2Xq (.P.E.8XY. XU.I.(.(.`._.s g.V._ ) { ` o.4.1.[ X.FXKXPXCXe.#.+.+.o.{ { ) : n.s.+ R D Y D d.l D m |.d.E K.G K.K.T _.I.(.I.!.I.|.K.K.I.",
"$ A S L.!.!.i l.J R I._._.a `.I.).).3X!.F W.W '.`.!.Z f.s.1 N.q.| ` %.5.1.0.JXKXHXCXX.` ' +.' =.N.V.; b.x.3 A D W G T M C D S !.K.d.C T K.D G.7XI.K.I.`.I.)._.G ",
"0 J L.!.L.P.y R P.I J.I.I.i W.'.).R.R.T m i C (.D P p p x 1 $X+X2.` +.3.4.M.JXLXIXvX} ` { =.%.q.&X=Xk g.f.9 n S l t l t 2 D C Q T U.g g T T Q S Z G T Z g C W D ",
"2 ~ _.P.!.P.i E !.L.I.W L.d J.P.Y.Y. X~.D l.|.|.P.Y.I p R.p.=X&X0.` $.@.$.<.JXLXIXvX .` ' >.{ N.&XVXp.v J.# F d.T H Y.P.J.E B C Z Z g Z I.(.J.S K.(.P.2XC T.T.T ",
"i ~ ~ T W l.g ~ W.l.~ L.W.i L.I.I.).E.).W I.'.].3Xz.d.z R.H jX&Xq.` -.+.+...JXLXJXSXM.#.$.5.| B.&XVXp.a.W & D T G G.z.Y.K.!.E W G G g T '.(.I.D U.).J.'.D '.T.T ",
"$ Z a y i C 0 i b b m J.~ % W T B Q G l S v A.D l.I Z 3 f k =XzX0.` [ #.$.e.HXLXKXvXM.>.3.5.} B.zX=Xx k S # e d s a s a i d r m q s w w C Z C 0 s l S Q > s g r ",
"i J C C f L l.E E R C J L.9 b F U c Y ~ l.E G B W I.m f I H hXiX0.: { >.;.w.HXPXJXCXe.>.4.1.: i.kXuXs.a.P 9 D T T d.Y K.J.C K.T P.I.i T !.d.(.T U.D `.`.U. X!.T ",
"q ~ T ~ C ~ ~ P.l.l.R I.,Xq !.I.A.U W W.!.P.(.[.qXqXR d K.H =XiX .; ] e.e.w.HXKXPXAXw.,.;._ - 9.aX{.g.g.l.2 d.G.d.E._.!.J.R ~.`.!.'.a d._.K.I.`.(.Z `.I.I.(.2Xl.",
"d R I W A E J.L E E W L.P.= J.L./.Y J.l.z.E I.[.].S.R n G.f.aXzX6 - | ,.<.u.JXLXLXAX..,.:._ - y.{.X a.z.P.> G.K.K.T.T.L I.Q (.(.(.`.i A I.I.P.'.l.J.I.(.(.`.!.W ",
"g L.R l.S ~ ~ E L J.L.W L.0 ~ l.U.b P.x.z.d.Q (.Q S.K y (.g.x +X9.- ] ..e.uXJXLXPXHX .:.:._ - s.c.X z.P !.2 G.d.H.K.P.K.A m J.P.x.!.% x.(.I.!.I.f ~ D E P S J i ",
"f J E ~ b m E d d L l.C J.a A l.M I P ^ I M d.Y A J n u D x + k.8.: ` ..V.CXJXLXKXAXX.,.>.` : i.b., Y d.T.r d.).P.K.Y A C d f S Z D f P.'.P.(.P.I 7XI.'.`.P.`.x.",
"f E g R f R W D g P.l.x.W.y l I M d E ^ !.D d.T.E l.~ A l.R.k k.u.` [ <.uXAXJXPXKXAXu.,.;.' ) B.h.a.H I K.$ s Z v S Q 0 K J.P.I.!.!.n f.(.I.Q.L D l.W ~ l.L M A ",
"b l.L ~ S L ~ D D L.~ P.L.2 i d D f B y Y e Y Y.l.x.^ f P 3Xa.i.m.:.[ ] n.HXJXPXPXHXV.,.[ ;.] N.h.f.f.l.K.> T K.d.!.U.y I ).f.I.`.!.L S P.E L.I.(.m L.I.W.x.!.I ",
"2 L a f d M R E A A E T !.8 x.^ I.!.~ E J.g E K.<X!.M p I }.f.6 ..:.:.) 0.}.v.v.v.4Xj. .[ ,.] } < c.a.P P # G.P.E.K.W A I.(.K.|.`.qXI E W.l.'.L.2XC ~ (.I.`.`.J ",
"b J m S C i E D C % C g S y l.E J.7Xl.L.R g I.Q ,X~ R L I f.N ; } X.| ) 5 N 4 4 u z 8.X.[ :.X.- 6 H M M z @ Y.l.d.J.J A J.P.'.~ Y.2XW E !.P.I.2X_.S P.P.P.,X`.x.",
"S E g J S d P.E J J ~ W ~ 0 l.R I I.L l.J J A.W _.J.P K 3XH x.O - X._ : t.uX4XcXfX.X.X8._ ) ..1 4 z.T c.E , d.Y.D K.m L L d R m L W i P.9X^.<X`.l.I !.!.9X,X!.P.",
"m E ~ L L R E l.I E Y W L.= W ~ f P.W W U g J J ~ <XD M 3Xx.K + 6 uXiXn.n.dXdXdXdXdXdX*XuX$Xs.k t l H Y.K.* D P.I l.C (.P.S (.~ !.2XA L.3X0X!.P.l.l.P.eX3X,X!.~ ",
"i L E L.A A P.R J W l.R W q J E I E l.L.D R S.A.~ L E d K x.H , < Y..X4XcXcXcXdXdXcXfXgXpXn.k N z z.T K.(., Z K.T l.i P._.C I.W.`.<XM Y.!.,X9X^.m ,XK.`.Y.9X0X~ ",
"i L b E b q L.I E S L R l.9 m E Y R R W J d R A R Y J 2 d m p + + v h.pXdXpXpXdXdX4XwXdX.Xx t z z Y.G T.Y.@ p d.!.x.u l.l.i ^ !.W.K.f P.Y.`.`._.p P.L.Z K.K.3XJ.",
"q J Z C S Z S A D S A C J % S R M S d L Y U d A b Q y a D D I 2 , }.~..X4X4X4X4X Xc.4XdXdXf.z Z z f m f G 9 i l 0 q w 0 b f 2 i i C 2 q 0 0 2 f d d p n 2 u q q ",
"i W P.L.L.K.W.R L.`._.2X7Xi W.2X(.P.L.!.].].(.].J.U.A A Y.l.!.t + g.R.wXfXxXfXH p f.pXxXdX~.S l.T J.E d.T.8 !.!.).S !.!.`.0XP !.2X^.M !.!.x.^.!.x.l.!.`.`.`.^.!.",
"b L.W.L.~ L P.l.~ _.l.W.2Xi W.`.`.L.L.~ W.qXU.A.,XW A D !.!.L.M t g.f.dXxX3XY., 2 ~.fXcXxX0Xl.Y W T E T.d.2 8X(.^.E `.2X^.0XE l.,XL.M qX!.P.`.`.W l.P.3X^.P.L.~ ",
"f L.~ l.!.~ E E L !.I.W.'.i P.W.I.,Xb C J U D R U.A e Y Q J.`.C z R.a.eX9XW w w 7 oXoXmXMXeX/.U I.D J.L P.y !.9X2XL !.x.~ !.E P.(.(.M W.'.I.0X_.P.`._.7X`.D ~ P.",
"2 R D S S ~ D f J E J.W `.m ~ x.<XqXT W.E I.W.W.].7XE S A L.P.b l `.}.gX8XS e F 7 E.oXtXnXtXU.! C D m g R 2 E !.P f b M S T f E ,XW.m R _.!.0X'.W.!.qX_.7XL.x.!.",
"9 J E J L.W.!.T L.D x.U.(.y R T ^ R y U.L.~ _.`.~ P.D L.~ K ].Y a G g.wX8XQ c B j F.E.oXfXMXQ Y Y C L C x.i D W ~ ~ W I !.`.^ L (.W b S l.P.W.!.qXeX`.P.,Xl.K.~ ",
"i l.l.P.J.L.L.l.J.P.L.W.,Xy ~ !.L.W.e L.E L.9X,XL.P.D W L.E ].W h F }.wXoXF.B ! j ! E.E.oXMXh K.J D S ~ l.d l.W.P.`.I.P.`.!.l.I J.E m l.W ~ b L R W W d L R M A ",
"i W.J L.L.`.P.~ D (.J.I.!.i J.J.<X~ y W.x.P.2X`.`.L.y P.(.I.(.L.B A.sXwX[.v ! ! ! c E.H.E.nXr T.R L d S ~ C P.W.W.'.~ P.`.`.R L <X^.m `.W._.R Q.l.,X,XD <X^ `.!.",
"y (.L.l.L.E l.l.f L S R L i L.W !.L.R K J D S E E x.2 K.'.I._.~ h c oXH.F.c ! v ! ! H.H.H.0Xt H L A C A W d E L.L _.!.l.!.`.~ ~ l.L.n <X_._.E ~ L.,X_.M L.R K.^ ",
"a !.K.l.~ R E P.~ _.W W P.m L._.^ L.A ~ _.2Xm !.!.,XA l.8X`.K.Q S.Q gXoXG.c v c v p.oX*XoXoXz Y l.l.S E E 8 m b g A J f m E Z S A J = P.Q.K.x.!.^ ^ W.d W.E l.J ",
"w L.x.~ D E J J.m `.L.l.!.d R Y m L.A S.~ ^.d P.P.^.p E (._.K.s A.Q mX*XH.h F F j ! =X*X*XnXZ l.^ !.L.S l.y L P.P.x.W.!.d ,XP.P._.L.q !.x.^ E !.K.^.P.n L J A C ",
"i R d.d.T.T d.l.r J.P.G.).Z E S R 9Xm `.~ K Y (._.(.m l.l.^.(.C Q K.mXmX! c Q U c v sX*X*XnXH T d.K.I.m E = P.^ E Y.P.!.i P._.W.P.W.i !.!.l.P x.~ L.J.D Q (.!.P.",
"w l.E Y d.Y T.d.l Y d.G 9X9 I L L.P.n L.L U K W K.P.f l.Y.E U.A F G.gXgXB F U R h Q nX*X*XgXv G.Y K.W E S 2 P.Y.E !.^ P.Z `./.[.P.x.i P.P.W l.'.J.K.K.J J.l.P.Q ",
"0 b g m f s Z l Z s l g i % 9 q u y i A e S y 0 i M 2 d m a y w w G sXmXB 7 n p 2 9 R.oX*XsX0 h a h 0 f 3 2 f f d f d M q 3 i y q m 2 3 q q g d g f L 8 s g g s ",
"q P E P.K.T.E T K.'.(.T.I.r I.J.,X^.^.!.n U.^ ].!.`.i D !._.7X/.J. XpXpXB U ,X~ f v H oXnXnXF J.W Q !.~ K.i W P x.L S x.l.m ^ Q l.!.n P.x.d.J.(.K.E K.G.(.'.I.K.",
"w T G J.I.T.!.G.J.Y d.T.).d E x.W.x.L.,XU 7XL.I.2X9Xi l.L.!.L.J.J.[.pX}.U n `.~ g G.J.d.rXwXQ I.L.A D E P.i P.E d.P.l.P.W.m J._.d.J.8 E P.I.'._.T.).9X(.T.0XT.d.",
"i d.E T T.E G Z T.G.).).K.d l.!.<XL.E W.y (._./.^.l.q L !.!._.I.Q G.sXH S.A.W.U h U.^ L.tXtXQ K._.E E W.Z L x.`.K.K.E x.(.m L.W.J.J.# Q J.J.T.I.d.I.K.T.I.G.K.Q ",
"C x.T.E W d.Y l T I.I.E K.S x.`.x.P.P.2Xd F J E S d.3 d.P.L._./.(.K.fXa.G.U.J.W # c n / DX6XB B J ^ J ~ D i P.x.T L C m S 2 A J g Z % T P.l.).I.I.T.K.T.E. XP.Y ",
"2 D G G.E d.W G I.T.T.K.T.9 s f C L m E d ~ L.I.P.!.n J.K.J.W.,X_.K.|.f.Y ].l.J A.^ 1X1XUXD.D.F.U W L.A K.9 m l l E d T E E E E Y K.g K.l.G.d.F G.K.K.J.E ).K.Y ",
"m L I T E D T l Y d.I.G.W D l.!.l.E L.~ J /.W.K E `.M m D R ~ ~ Q.6Xv.MXP P l.y S.1X1XyXZXZ.-X( S.<X_.K W 0 E K.!.K.8 l.P.W Y.E D Q L s I.E C G _.I.Y d.G.K.E E ",
"2 L.T L G.W T.Y W G Z z s l P.l.l.E I.L.K L.Q Q !.P.q E ,X^.rXDXDXUXQ.<X,X,X(.A S./ ;X-XZ.-XZXyXF./.~ L.T i G L f.J.r d.E K.l.I C I.D 9 s d s r Z c z Z f l G l ",
"# Z l C g S l l C Y T G.(.m J.l.~ l.`.W.U l.~ W.x.2Xq L ,X,XGXGXDXMX1X1XL.U.5XA L.1X-XyX>X>XZXUXD.K ^ C J # I.D K.z.2 f.E !.E E Q E f D T T J.J.Q d.I.`.].K.K.Z ",
"9 m C d.T.Z T d.W l.D I.!.m P.I P D Y m D R L.L.`.P.p l.0XW.,X5X6X,X<X9X<XL.U.g A.D.6X-XyX-XyXyXtX^ ^ L.).f T.K.G K.$ D C M M a S g w Y J.T T I.E G.).!.K.E I.f.",
"f I L d.).G G Y d.Y Z P.!.$ S C m A E L J J W A._.!.u x.2X<XW._.L.Q _.<XqX[.Q C Y R / V ;XV / D.D.n S.l.~ q K.W K.K.l T d.Y.L m W D g D L S W d.G Y d.E W d.E T ",
"f S I.|.d.S d.K.d.d.Y S E.2 P G x.L.W.T A E A.I.W 2Xq l.P.`._.L.K.W ^.<X(.(.].I ~ D U ^ ~ K <XK S.A L.S.(.i Z G G l.s Y K.T x.m L W i B R E J.E T Y I.).l d.f.d.",
"u l.E G d.T K.T T.G.E d.d.9 l.(.l.K._.R g R l.^ `.P.3 P.`._.!.qXK.'.Q.Q.K.(.W.E K l.A I.W.P._.n ^ n ~ R l.a E Y T I.C T f.K.I.s D J a d a L !.E Y I E I.G K.d.d.",
"0 i r d l s C D Z Z C l D $ i m i r f y e d C 0 f G 2 n D C K n f D n B h C 3 u = i e a g 8 a 8 d 7 y n K > i a 9 p 9 z 9 a i $ e 0 = 0 8 0 i e 9 2 w r q r f s "
};
