/* XPM */
static char *a7253589646e4bf3d4bf3c9e81060ee4PMW1tVfDtG4sAbnZ[] = {
/* columns rows colors chars-per-pixel */
"80 80 157 2 ",
"   c #393A3B",
".  c #3C3D41",
"X  c #3E4143",
"o  c #434446",
"O  c #444648",
"+  c #48474C",
"@  c #46494A",
"#  c #4A4B4D",
"$  c #4A504E",
"%  c #4D4E51",
"&  c #4E5253",
"*  c #515355",
"=  c #545659",
"-  c #555A5B",
";  c #595B5D",
":  c #5D5E61",
">  c #5E6163",
",  c #626365",
"<  c #666867",
"1  c #656769",
"2  c #666A6B",
"3  c #6A6B6D",
"4  c #6A706E",
"5  c #6D6E71",
"6  c #6E7173",
"7  c #717375",
"8  c #737977",
"9  c #747679",
"0  c #757A7C",
"q  c #797C7D",
"w  c #7B7F81",
"e  c #7D8183",
"r  c #818385",
"t  c #83878A",
"y  c #85898B",
"u  c #898B8C",
"i  c #8A8F91",
"p  c #8E9295",
"a  c #939596",
"s  c #949897",
"d  c #949599",
"f  c #97989A",
"g  c #9A9B9D",
"h  c #9EA09F",
"j  c #9D9EA1",
"k  c #9FA0A3",
"l  c #9EA6A8",
"z  c #A2A4A5",
"x  c #A5A6A9",
"c  c #A6A9AA",
"v  c #AAABAD",
"b  c #ABB1AF",
"n  c #ADAEB1",
"m  c #AEB1B2",
"M  c #B2B3B5",
"N  c #B4B8B7",
"B  c #B8B8B6",
"V  c #B5B6B9",
"C  c #B6B9BB",
"Z  c #BABBBD",
"A  c #BDC0BF",
"S  c #C1C1BF",
"D  c #BCBEC1",
"F  c #BEC1C3",
"G  c #C2C3C5",
"H  c #C6C8C7",
"J  c #C5C6C9",
"K  c #C6C9CA",
"L  c #CBCBCC",
"P  c #D0CFCD",
"I  c #CED0CF",
"U  c #D1D1CF",
"Y  c #CDCED1",
"T  c #D1CFD0",
"R  c #CFD1D2",
"E  c #D3D3D4",
"W  c #D8D7D6",
"Q  c #D6D8D7",
"!  c #D9D9D7",
"~  c #D5D6D9",
"^  c #D9D7D8",
"/  c #D6D9DB",
"(  c #DCDCDD",
")  c #E0DEDF",
"_  c #DEE0DF",
"`  c #E1E1DF",
"'  c #DEDEE1",
"]  c #E1DFE0",
"[  c #DEE1E2",
"{  c #E1E2E5",
"}  c #E0E4E5",
"|  c #E1E5E6",
" . c #E3E4E6",
".. c #E2E6E7",
"X. c #E4E4E4",
"o. c gray90",
"O. c #E4E5E7",
"+. c #E4E4E6",
"@. c #E5E7E6",
"#. c #E2E2E3",
"$. c #E8E6E7",
"%. c #E6E8E7",
"&. c #E9E9E7",
"*. c #E3E7E8",
"=. c #E3E4E8",
"-. c #E5E6EA",
";. c #E6E7E9",
":. c #E5E6E9",
">. c #E9E7E8",
",. c #E4E8E9",
"<. c #E5E9EA",
"1. c #E4E8EB",
"2. c #E7E8EA",
"3. c #E6EAEB",
"4. c #E7EBEC",
"5. c #E7E9EA",
"6. c #E8EAE9",
"7. c #EAECEB",
"8. c #EAEBED",
"9. c #E9EAED",
"0. c #E9EDEE",
"q. c #E9EFEF",
"w. c #EDEDEF",
"e. c #EAEAEC",
"r. c #EBEFF0",
"t. c #EFEFF1",
"y. c #EEEFF3",
"u. c #EDEEF0",
"i. c #EDEEF1",
"p. c #EDF1F2",
"a. c #EEF2F3",
"s. c #EFF0F2",
"d. c #EFF0F3",
"f. c #F2F3F7",
"g. c #F1F2F5",
"h. c #F0F4F5",
"j. c #F2F6F7",
"k. c #F3F4F6",
"l. c #F4F5F7",
"z. c #F2F3F5",
"x. c #F6F8F7",
"c. c #F3F4F8",
"v. c #F6F7F9",
"b. c #F6F7FB",
"n. c #F5F6F8",
"m. c #F5F6F9",
"M. c #F5F9FA",
"N. c #F7F8FA",
"B. c #F6FAFB",
"V. c #F4F8F9",
"C. c #F7FBFC",
"Z. c #F6FAFB",
"A. c #F9F9FB",
"S. c #FAFBFD",
"D. c #FAFBFF",
"F. c #FDFEFF",
"G. c #FBFDFE",
/* pixels */
"Z D F D D F D F K F D D D D D D C l e w 0 e b D F C F X I F F F F F F F F D D D F F J J D D F J F F D F G Z L Z D F G F J v p e e m F F F K C e Z A Z Z Z Z C N ",
"5 2 6 6 6 : w w w w w 6 6 w 2 > 4 6 e w e e e e w w e e e i e 0 0 w 6 4 6 w 7 w 0 6 6 6 7 7 5 2 7 8 e 0 q 9 3 6 6 5 5 5 w 7 w w 7 q 8 w e e i t p e w 6 5 5 6 8 ",
"f.b.[ c.] y K ' ' y.b.f.=.} 1.1.4.q.q.3.[ 1.q.[ 1.} / 1.3.q.M.M.q.q.a.a.c.Z.b.b.M.M.C.C.b.a.p.h._ p K I T p.A.u.w.g.w.8.c.-.] -.-.{ ] 6.[ R Y ' [ ,.p.a.n.S.n.l.",
"' ' K M D D 9.' ' ' ' ' =.1.' Y R L I Q ~ F F F F F F R _ R L H / ' [ [ [ [ [ [ 3.[ [ [ [ ~ F C F 0 [ F ' +.~ ' T J L T L L Y L L ~ ( L R ( ( ( ' [ ( [ ( ( ' ] ",
"[ ' 5.' D E g.] =.=.-.-.} } =.=.` U I U E U G A N F _ _ I _ %.&.*.*.*.*.[ 1.1.3.*.2.3.*.[ [ [ 2.Y > C.( [ ' +.o.X.#.E L T T T ' ) ^ ) #.X.( W X.( ( #.#.#.` ` #.",
"' [ ' -.J ' n.( =.] ] ] } ' ' ' o.&.( E U E L H F F [ _ q.[ _ _ [ *.*.@.[ 1.3.[ *. .[ *.4.4.,.{ R > C.' { [ ( ( ` ( ` ( T E ( ' o.) ] ( ) #.) X.#.( ) ! ( ( #.X.",
"=.' ' ' Y 9.9.:.=.=.-.9.-.] =.' ` ` ` W U E U U F F [ q.` ` &.@.@.*.%.*.%.%.3.,.%.%.7.%.#.[ &.7.Y 4 C.' ' ' ( o.! o.` ( W ! ( ' X.) ) X.X.) ) X.) ) ] ) X.] ] ) ",
"' ' =.{ E ( t.:.{ { -.1.] 1.1.=.` ` &._ W E U W / A [ [ &.6.@._ @.%.@.#.#.*.2.*.X.@.o.%.%.*.o.&.I > C.[ { { #.( ] X.` ) E ) X.( ] ] ] X.! ) ) ) #.` ] #.] ] ) ) ",
"X.) ` ( E 6.7.#.+.+.#.o.+.X.o.o.` ` X.) P P U W E B ` @.` &.` #.@.&.o.` ) ! X.o.$.:.$.] >.>.o.o.L 5 g.] +.( o.( ] ] #.` ) _ ` ` X.) ! ] ) ] ) ) ) ) ) ) ) ) :.! ",
"! 7.) #.` X.z.o.X.+.o.o.o.o.#.#.&.&.! U U W E U ! U U ` X.` 7.&.%.X.X.6.o.] ) o.] o.w.o.e.) >.w.Y 3 9.=.( +.X.+.] X.#.` ` ` ` ` ` X.+.X.) X.X.X.X.) X.X.X.) ) / ",
"6.' ( -.E Y k.[ +.o.{ { o.2.o.#./ Q R Q U ! X./ H ! ! L @.` ( +.] >.o.] X.e.7.[ ) ) $.w.6.] o.7.T : / =.+.] ( ] X.#.) ( ` _ #._ o.#._  .] X.) ) X.) X.#.) ) #.` ",
"{ { -.' E k A. .-.o.+.{ -.-.#./ Q Q R R W L U ! E _ / @._ H L t.o.o.o.X.o.&.o.*.X.] ) t.6.o.o.*.( , ~ ~ { ] +.] ) ) ) ) #.#.#.#.( _ #. .] ] X.o.X.( #.) ) X.( ( ",
"L K L ( E 2 S.' 9.5.2.2.-.#.~ L [ R / / R R R Y Q / ~ U K C V G ] +.4.4.,.[ [ ( L B C F L L [ [ / > / ( :.+.+.+.] ] =.=. . .#. .[ ,.2.[ [  .[ [ ) ] o.o.*.6.#.#.",
"Y M K D Z & 9.L L L H H H J F C F F F C F F C F G J J Z D K F F C K I F F K F C z c c A F Z F C L > Y R Z L G J G K J L J G G G K F J G K K H K K J G K G G F G ",
"= > * 2 : 2 q > ; = & = = = = = = & = = & = : * : * = ; - % & & & & & = - & * - 3 6 ; 2 - - & & - > = $ ; % = = = * * * * & & = - = - = = & = - = > - ; = = * * ",
"a.G.9.5.J [ p.a.F.C.G.G.C.M.M.G.C.C.C.G.G.Z.C.C.b.G.n.: a.G.G.C.G.G.M.M.C.C.C.C.M.F.M.C.C.C.C.C.C.h.C.C.S.F.S.F.S.A.b.b.b.M.Z.M.V.a.[ L R R F c L [ -.M.B.x.l.A.",
"Z C x E S ! ! L K G H U / ` ( ` [ [ [ [ ( [ [ / m b C @ [ / / _ ' ' ~ ~ / / ~ ~ / / ' ' ' ' ] ] _ / / _ / ( ( / / ( ' _ / L N c x v B m E E F e 5.K K F S G H H ",
"L G B G W L E ( o._ #.` o.o.` X.[ [ [ [ [ [ [ [  .[ Z & 3.[ [ ( ' ] ] ( ] #.' #.' ' ' ' ' ' ] ] _ _ _ _ _ _ ` _ ` _ _ ( #.#.#.` E E ! E E I D 8 4.K L H H H H H ",
"U G B B ` o.X.o.` ` X.#.#.#.( X.#.[  .{ [ [ [ [ +.2.B * 3./  .[ ' ' #.( ' ] ( #.] =.=.] ] ] ] ] _ #._ _ #.[ #.#.` _ ` ` ( ( / E ~ ! E Q E / M 8 4.J K Y H L H L ",
"! ~ P G W X.( ( _ ( ` ` #.X.X.o.{ #.{ { [ [ [ [ ] o.H * j.( [  .' ' #.' ] ] ( X.] ' ] ] ] ] ] ] ` ` [ _ ` ) ) ] _ ( _ ` ( ( ( ! / ` I ( #.-.N q 4.J K L L L L K ",
"U E ! S #.#.#.o.#.` #.@.X.#.( _ X.#.` #.[ *.[ #.X.#.H @ z.) / _ ] _ ` ` ` ` ! ` ' ] ] ' ] ] ] ] #.#.] ] #.] #.] ] ] ] ^ W W W E ( ( / o.' [ V 5 q.J K Y L L K K ",
"( Q ` L ! #.&.( #._ #.#.` _ Q Q ! ) X.%.3.[ _ @.#.o.G @ x.X.` ` #./ _ ` ` ( Q ` ] ] ] ] ] ] ] ] ` #.#.] ] ] ] ] ] ) ] ] ) ` ) ) #.#./ ( [ [ F w q.K L L K L L K ",
"( ! _ / L / o.#.@.#.@.@.X.#._ #.( ) _ @._ _ #.%.` %.H o z.) _ _ @.#.#.#. ._ ^ ( ] { ] ] ] ] ] ] #.#.] ] { ] { { +.] ( ( ( ( #.( =.-.~ Y [ [ D w q.K Y L Y Y L Y ",
"@._ I / Q Q U #._ _ #.#.[ ` _ #.X.( Q _ @.@.@.@.&.` P   x.! @.@._ _ #._ ' ( ~ E ( ' ] ] ] ] =.] +.#.{ { { #.] { { ' ' ' ] +.{ ^ [ ' ' ~ ' ' D w =.K Y L K Y L K ",
"Q U Q E W E / H L &.` ` ( #.` [ X.( w._ Q 3._ _ [ [ F X j._ _ [ _ [ ' [ ' R R ~ ' ~ ' ] ] 9.=.' [ [ [ [ [ [ [ [ -.{ [ ( [ [ [ [ ] { ' ' L Y D w 9.K Y L L L L L ",
"E E I ! W / L G g I _ %.X.o.%.o.&.#.R v l H _ Q _ .._ & [ _ @._ ,. .' Y L Y R R Y ' ~ ~ ' Y J =./ q.[ [ [ [ ' [ [ [ [ [ [ [ [ [ ^ W / T C n F 9 y.Y Y T Y Y L L ",
"v x N m c n C M Z C v M C n M m c N b m b b N m A b b $ A A Z Z F G J J Y Y K D D M V C D J Y Y F C F A F K K G J K K F F F C A G G K Z C F Y w L m V V C C Z Z ",
"* $ * ; o > * * # # # $ # * * + $ q s z p 8 4 < X $ X & r 2 6 2 = = % + + + + + # o o + + % + = > > X > = @ O O @ @ @ @ $ & @ $ # + # @ . . X : & X + % % % * % ",
"A.F.S.M.F.7 L Y ( 8.F.F.A.A.F.S.C.G.F.F.F.G.G.G.h.Q A R [ C.S.M.F.G.F.F.G.Z.S.F.G.G.F.F.F.F.F.F.a.c L [ =.F.F.S.S.A.S.S.C.G.Z.Z.Z.S.F.S.f.' F ' c.f.C.V.Z.Z.S.n.",
"( ~ M n v 1 E Y ( E ~ ~ L K K K I L L L H J K R F I I _ R [ ( E / ( ( / ' ' ( / ( ( / / ] H z z C 6 ( F / / ] E L K K K L R Y R J ' ~ K R R / } ' [ [ ' ( ( ' ( ",
"(  .u.( v : k.( ' [ 9.' ' ' ( L H L E E / { -.( .._ [ [ _ [ ( #.( #.#.[ _ #.#.' _ _ o._ W ] ` E G 1 c.' ' e.=.] ' ( ^ E Y E E ' ' ' [ ' 1.' [ ' 1.[ [ ' [ ( #.#.",
" .#.' { n 3 A.( { ( [ ( { ( ( ' ! E ~ -. .( { ' } .._ _ [ _ { [ #._ _ [ _ ( _ #.( [ _ ( o.] ~ ) G 2 p.[ =.' ] ] ' ' ' ( E ~ / { ' ' =.' ' 1.' =.[ ' ' [  .[ #.#.",
"-.] ] $.G : b.' { ' ' ] ] { ' ' E ! ( ) ( _ ) #.( ` ` ` ( ` ( ` #.( #.( ` ` X.! #.( ` ` ( X.) o.Z , w.) X.] ] X.] ] ) ) W ) ] X._ #.#.` ` @.` &.` ` ` &.#.` #.#.",
"=.] ] ] G 1 S.' ' ] ' ] ] ' ] ' ~ ( #.#.#.] ` #.` ) X.( ` ( #._ ` _ ` X.( #.#.#.X.( #.#.( ` ( o.Z < z.` X.X.X.] X.X.) ) ^ ) ` #._ @.` ` ` ` ` ` ` ` ` ` ` ` #.` ",
"] -.8.] G 1 S.] { ] { { =.] =.' ( ) { { #.` #.( ` #.#.` ` #.` ` #.X.` #./ ! ( #.) #.#.#.` >.X.( B < z.) ) ) ) ) ] ] X.) ( _ #.#._ _ ` _ ` ` ` ` &.` ` ` #.#.` _ ",
"] ] ] ] J : b.' { { { ' { { ] =.( ( ] [ ) #.` ' #.` o.( o.` X.` ( #.( _ ! ! ( #.( #.#.{ / ( ) &.Z < &.` ] X.X.+.] o.X.] #.` #.#.#.#.#.#.` @.` ` ` ` ` ` #.#._ _ ",
"-.=.[ ' J : b.' { { { { =.' =.[ { #.#.[ { { { { ( [ ( ` ' { ' [ ' {  .' { ' ' ^ ( ] ] =.' { o.o.G , [ '  .{ #.{ ] { { { #.{ #.[ [ [ ` ` #.` ` _ ` &.X.X.X.#.#._ ",
"] =.=.' L , b.~ { ' { ' ' ' ' ' { #.' [ [ ' ' {  .{ #.#.] ' { { { { [ ~ #.#.{ ' / ' ' -.[ ' #.-.S ; ( ' o.{ { { { { { {  .o. . .#.#.@.*.@.@.` @.` ` ` ` ` @.[ [ ",
"y.y.u.' L : y.K -.=.=.{ ] ] { { +.{ { { { [ [ -. ./ 8.E i.~ ] ' { { ' ( #.{ -.w.] J M ( u.9.:.g.F > E / {  .o.-.{ #.' ' [ [ [ [ [ ' #.[ _ _ _ [ &.7.@.@.#.#.[ [ ",
"D n n n m * y.Y K K K J K G G G J K K K H H K L Y R L L L K J J L H D G Z M v Z C K K L Z M v v H 1 E Y Y Y Y L Y L L L K K L K H L L I L H L I U U L H H G G G ",
": * ; + ; + 7 + * * # # # * * * % # + @ @ + # * * % = = % % % + % % * % * * - % ; > , , : ; * # * ; ; = * ; ; ; ; ; = = % % * * * * = = ; # - * * * & & % # $ # ",
"u.y.c.=.G ~ :.z.S.l.l.l.k.e.9.w.u.g.n.b.A.n.z.w.u.y.-.3 ] f.b.f.u.u.u.u.9.p.l.z.l.n.k.t.w.u.u.u.u.c.k.t.t.g.t.g.>.:.u.g.n.n.M.g.z.%.~ J K H F l L / [ q.z.z.l.t.",
"D m V G J +.E T J K Y / ( ( ' { { #.#.' ' #.[ ( G n G o 1.' 1.-.+.{ { ' ' { o.o.+.-.+.] [ { { { { -.=.+.] $.] $.:.+.' ( E L Z v b M N N F K N e [ [ ( [ ` / / _ ",
"L F D D K K ~ / ( { -.o.+.+.{ { +.+.{ #.[ { { #.u.~ C + 9.' ' 1.{ { { { #.{ { #.#.{ +.+.o.-.o.#.#.{ =.] +.=.] o.#.] ] -.-.9.o./ H / ! ! ! _ F e q.[ _ [ _ ` _ ` ",
"U L Z G ) ( X.) / #.X.) _ ` #.` _ _ @.#.{ { [ ' ( { D o f.' ] ] { X.#.#.X.X.X.X.{ +.X.X.#.X.X.X.#.#.#.@.o.X.] $.o.X.X.o.#.` ( ( W ` I ! L _ N 8 V.[ [ [ ` _ / ) ",
"W L G B ! ) ) #.` #.` X.#.#.X.&.@.@._ _ #.{ o.{ { { L % f.' 1.-.o.o.#.#.X.#.#.&.X.X.X.X.#.X.X.#. . .X.#.>.] X.X.X.) X.X.` / ( ( _ ` E 7._ [ N w V.[ _ [ ( #.` X.",
"W E #.S #.! ` #.` ( _ ` #.` _ / ` _ [ @.#.#.[ #.-.-.D + b.-.] 9.o.o.o.o.X.X.) X.X.X.o.o.o.&.o.X.X.%.%.X.$.$.] $.o.] ) X.( ( _ ( ` @._ 3._ [ N 0 p._ _ [ ( +.' ' ",
"^ ! ! J ( o.o.( #.X.o.#.#.#._ E %.@.` @.*.[ #.o.] =.J % y.' 9.] X.o.X.o.o.#.( #.o.X.#.X.X.o.o.o.X.%.X.` ] $.$.X.$.o.X.( ` X.X.` %.*.! [ [ [ A 8 j._ [ _ ' { { ] ",
"! U ! W T ] ) o.o.] +.=.o.' ' =.' ] ] ' ' -.] 9.] -.G * c.] ] -.X.X.X.X.6.` ~ ) o.X.X.o.o.o.&.#.X.%.#._ X.#.6.#.X.X.X.` ) #.#.) ] i.' ' -.' D 9 y.=.] ] ] 1.] ] ",
"X.X.) ` L ~ ^ o.] :.:.] ] +.+.+.-.' ' ' 9.] -.9.=.-.T % w.] -.-.o.#.#.X.>.` E / ` >.o.( o.6.( o.X.#.@.7.6.o.o.%.X.) ) ( ` X.X.#.] 1.' ~ ] -.D 9 9.] ] ' ' ] 1.' ",
"! E U W T T ] S T ( ] ] ] +.+.+.] ] -.] -.] -.' =.] G % c.] 9.] #.X.o.o.X.! P E ~ X.X.#.o.o.6.o.@.@.@.@.#.#.o.o.o.o.X.X.o.&.X.#.9.] ' ~ L E D 9 ' =.-.=.' ' ' ] ",
"P E W W T ^ ^ B n L =.w.9.{ +.e.f.-.L M v K ' ' i.w./ % y.] 9.] 6.o.X.W E E E / ` ( ! X.7./ H *.[ a.7.#.#.o.o.{ X.X.X.X.o.%.#._ ] ~ ' ' D D V w 9.] ' =.1.] -.-.",
"v n M n S M n B M n n V F D V n M D M M x n v x n c V % D D D G H G J J R R H G G J S Z C F R G m H F F R / ~ E ~ E T Y L L H K J J J D m Y K w ' Y K Y E Y L G ",
"1 3 1 7 , 3 5 : , 1 1 , 1 3 6 7 5 r j k j u r w 9 3 6 > y w w w q 7 7 3 2 5 2 1 , , 3 3 6 6 > < < > 2 > 4 4 3 2 5 5 3 , , , , , 5 , 5 3 3 , > , , , : 1 1 3 2 , ",
"G J Z D J 7 z D V G K J F F F G D D D D G D J J D G m F J J ~ J F F J J K F K K K K G J F K K F F s F F F L K K G G G J G G G K F Y ~ J K G D D ~ ~ ~ K D D J G ",
"( E J G Z * L ) ] ] -.] ' ' ' ] ' ' E E Y Y Y ~ ~ ~ T ' ' ^ ~ -.q.2.7.8.4.4.1.4.4.p.5.5.q./ F K A 8 A F L -.[ [ ( / ' ' ( ~ Y L K L J ' Y E ~ ( ~ ~ ' -.y.y.i.i.",
"Y Y Y V j : n.' =.=.=.[ ' ' ~ Y Y E ~ ~ E ~ ' { ' ' ' #.{ { { [ [ [ [ [ [ [ [ [ [ [ [ [ [ 1.R F Y 2 h./ [ ' ] ' ] ~ T Y Y Y Y ~ ~ ' ' ' ( ' [ ' ' ] ' ' ' ] ] ' ",
"K K Y K v 1 u.' ' ' ' ' ' ' ( ~ ~ T E ' ' ' ' { [ ' ' { { { ' ' [ [ [ [ [ [ [ [ [ ' [ [ [ [ [ [ F > c./ [ ' ] ] ] ( / ~ T Y ~ ' ( ' { ' ' [ ' ' 1.' ] ' ' ' ] ' ",
"K K L Y M 1 t.] ' ' ' ' ] =.' ' ^ E ^ #.=.{ ] ] ] ' ' { #.] ] ' [ ' [ ( [ [ [ [ ( { ] ' [ [ ,.-.Z > b.' { ] ] { ' ] ] ' T ~ ' =.' ] { ] { ] ] { ] ' ] -.' ' ' ' ",
"Y L L K C , c.] ' ] ] ] { ] ' ' ~ ( #.#.' { +.{ ' #.] { { { #.] #.[ { ' [ [ ,.[ #.+.{ #.[ [ -.' F > Z.( ] { ] X.] ' ] ' ~ ' ] ] #.' ] +.{ ' ' ] ] ' ] ] ' ' ' ' ",
"Y K Y J Z 1 k.^ X.#.#.) ] ] ] #./ ) X.#.( ) #.) { #.) #.X.#.#.` ) X.] ] ( ( ( X.+.) ) o.X.) X.>.A , x./ ) ` ) ] X.) ) ) ( ] +.( ] ] ) ] ] ] ] ] ] ] ] ] ] ] ] ' ",
"L Y L L B 3 n.) ` #.) #.{ #.] #.#.) ` o.o.#.#.) X.#.` #.] X.] #.) +.] ] ( ( ! ) ] ) ] ] ) ` ) >.C > t.X.) ) ) X.] ) ] ` ] ] +.] X.] ] ] ] ] ] ] ' ] ] ] ] ] ] ' ",
"L Y J L Z < z.( X.#.] X.X.` ) ` X.) ] X.X.X.X.) +.] ] ] ] +.X.] X.X.] ] ( ) ] ) ] ] o.) ) >.) X.Z > ` @.] X.] X.) ] ) ) ) ] ] ] ] ] ] +.] X.+.] =.] =.] ' ] ' ' ",
"Y Y Y J G ; w.E #.) #.X.X.` #.#.) X.o.] ( #.o.#.{ #.#.#.{ ] +.] X.) X.( { ] +.( ] W o.X.X.o.) 7.S ; E ` X.o.] X.] ) ) ( #.#.] ] ] +.] ] ] ] ] +.=.] =.-.' ' ' ' ",
"Y Y Y R D : f.R [ ' ' ' =.[ ' [ -.[ [ [ ] =.-.' ' ' =.=.=.1.=.=.] ] ' ] =.=.9.9.=.Y D ' ] -.-.u.D 1 ~ ' ' [ ' ' _ [ [ [ [ [ ` _ %._ [ [ ' ' [ ' ' [ ' } ' ' ' ' ",
"D D G D D = y.~ ~ ( ' ' ~ ~ / ' ' ' R ' ~ ~ ~ ' / ' ~ ' Y ~ ~ ~ ' ' ~ ~ R Y J D D D D D V V D J F > R ' R ' ' ' E Q ( ( / / ! ! R _ ' / ' ' ~ / ~ ' / ' / / ~ Y ",
"z j x k x * D j j z z z j f d d d f l l x j k f j d d p k p l l j g f f j j j z w 5 5 w f g j f n 5 x x j j j j g h h z z z z c k k g f f p l n l l j j g l l j ",
"m D v F M D D n C C M M D F F F D D C D c C D Z n D D w D D D D V V Z Z D D M n D m D D F V V V m D M V D D V D A B M m N M M b Z m C F D D D w D m D D D D D D ",
"6.-.w.{ 1.i.-.=.o.6.5.-.-.[ L Z V k z M J n g g k j j = ~ 9.y.f.] ] ] ) ] ] ] ] ' ' ) ^ ^ ] ( T G ! H E K L L F H J G H L U L L L R ' Y l D D : ~ L E ' ( ~ Y L ",
"( ' ( ' ' ' ' ] ' ' ' ' #.#.( ( ' ] 6.' Z ~ o.E ~ Y D : -.y.~ Y J L L T L L L J J J J J D K P T H L I I R L I G H J G S A A G G Y R R R ~ F F : b.' ' =.' ' ( ] ",
"#.#.( #.-.' ] ' #.#.` #._ ( ( ( ] o.] ~ / E U L T Y D : ] Y J Y T L P H J J H P K G F H D J J T H I U L U L H I L P H S S G P P Y K J Y ' K Y 5 n.' ] ] / ( ! ! ",
"( ] ] #.( -.] ] ) ` ( ( ` ( ! ) ] ~ / ! E ) X.E ] ' M , ] Y Y Y P L J H L J G S J G J J G ^ T L S H L I L E U L P P L S G L L L Y ~ Y K ~ K Y 2 g.' #.) / +.] ( ",
"#.#.` ( #.( #.) ( #.` ` X.) / ) ( ~ ^ ^ / ] ] ^ ] ] v ; ] J T T J J L H L H G P S H S H S L L K G L U U P L U L P P T L J L P L T T L P Y Y T 1 c.^ ] ] ] ' ) ( ",
"#.( #.) o.` #.` X.#.) #.#.( ( ( ~ ( o.+.( ] ] T ] ] Z : 9.J ^ J H T P L S L H G S S H G S G S B H U E U L E E L P L P L L L P L L L T T Y ~ Y , A.' ' ' ! ( ) ) ",
"( #.` o.) ( ) +.X.#.#.#.#.#.#.] ! ) ( ! ] =.] T ] -.D * w.J T Y T H J T H P G S S S G S G S J G L P L E L E U E E U Y U L P Y Y T T T T Y ~ Y 2 y.' ' ] ' ' ] ' ",
"&.#.#.( o.X.+.( #.( ( #.( ) ' ( ( X.#.] ] ] ' ' ~ ' D % f.T J Y T L J J H S G H G S G G H G L L P E U L P L E L U L L E Y P L Y T L L T Y ~ L 2 y.' ] ] ] ' ] ' ",
"( { ' #.( =.{ { #.#.{ o.{ { ' ^ ` X.( / ] -.] -.L D D % 9.Y Y Y L T L Z J F J J J G J T Y Y Y R I I I I I I R R Y Y Y E L Y Y Y L E T T Y Y Y 2 y.' ' ' ' ' ] ] ",
"' #.E Y G Y ~ ] ~ ( ' { { { { ' / X.#.[ ] ] ~ L G n D + w.T Y J L T G Z L D L L G G D T L E Y T I I I I I U R R Y L Y Y L Y Y L L E T T Y ~ K : 1.' ' ' ' ' ] ' ",
"m v M M G Z G D H E / / / ( ( ( ^ #./ K F D D D n x D ; ] D D v n M M D Z M Z D J D F G G K L K L L I I I L I L L L Y Y Y Y Y L J L J P Y Y F 2 1.' ' ' ' ~ ' Y ",
"M M y d , q q z z n M v v c x c z v M M V n v x v x x , D d x v f 9 .     1 a g z z z g g g j g g g h h k g g g j j z j k x x j k g f j f d c 9 M v c l x x x v "
};
